<svg width="116" height="85" viewBox="0 0 116 85" fill="none" xmlns="http://www.w3.org/2000/svg">
<path fill-rule="evenodd" clip-rule="evenodd" d="M69.5494 1.73108C87.9865 -4.2652 107.806 5.81614 113.817 24.2484C118.923 39.9016 112.428 56.5435 99.0612 64.8784L108.608 80L76.4987 73.3L46.4807 83.0627C28.0435 89.059 8.22403 78.9777 2.21259 60.5454C-3.79885 42.1132 6.27423 22.3099 24.7114 16.3136L69.5494 1.73108Z" fill="black"/>
<path d="M75.7283 32.7417C74.555 28.7633 71.2367 25.445 67.2583 24.2717C64.2333 23.3917 62.1433 23.465 60.695 24.5467C58.9533 25.8483 58.7517 28.195 58.7517 29.8633V34.4283C58.7517 38.9383 60.805 41.23 64.8383 41.23H70.1C71.75 41.23 74.115 41.0283 75.4167 39.2867C76.535 37.8567 76.6267 35.7667 75.7283 32.7417Z" fill="#34FFF3"/>
<path opacity="0.4" d="M70.6683 44.4933C70.1917 43.9433 69.495 43.6317 68.78 43.6317H62.2167C58.99 43.6317 56.3683 41.01 56.3683 37.7833V31.22C56.3683 30.505 56.0567 29.8083 55.5067 29.3317C54.975 28.855 54.2417 28.635 53.545 28.7267C49.2367 29.2767 45.2767 31.6417 42.6917 35.1983C40.0883 38.7733 39.135 43.1367 39.96 47.5C41.1517 53.8067 46.1933 58.8483 52.5183 60.04C53.5267 60.2417 54.535 60.3333 55.5433 60.3333C58.8617 60.3333 62.07 59.3067 64.8017 57.3083C68.3583 54.7233 70.7233 50.7633 71.2733 46.455C71.365 45.74 71.145 45.025 70.6683 44.4933Z" fill="#34FFF3"/>
</svg>
