<svg width="116" height="85" viewBox="0 0 116 85" fill="none" xmlns="http://www.w3.org/2000/svg">
<path fill-rule="evenodd" clip-rule="evenodd" d="M46.0073 1.73108C27.5701 -4.2652 7.75059 5.81614 1.73915 24.2484C-3.36594 39.9016 3.12896 56.5435 16.4954 64.8784L6.9489 80L39.058 73.3L69.0759 83.0627C87.5131 89.059 107.333 78.9777 113.344 60.5454C119.355 42.1132 109.282 22.3099 90.8452 16.3136L46.0073 1.73108Z" fill="black"/>
<path d="M76.0355 60.5129H39.3688C38.6172 60.5129 37.9938 59.8896 37.9938 59.1379C37.9938 58.3863 38.6172 57.7629 39.3688 57.7629H76.0355C76.7872 57.7629 77.4105 58.3863 77.4105 59.1379C77.4105 59.8896 76.7872 60.5129 76.0355 60.5129Z" fill="#FFA900"/>
<path d="M53.5771 27.5129V60.5129H61.8271V27.5129C61.8271 25.4963 61.0021 23.8463 58.5271 23.8463H56.8771C54.4021 23.8463 53.5771 25.4963 53.5771 27.5129Z" fill="#FFA900"/>
<path opacity="0.4" d="M41.2021 38.5129V60.5129H48.5355V38.5129C48.5355 36.4963 47.8021 34.8463 45.6021 34.8463H44.1355C41.9355 34.8463 41.2021 36.4963 41.2021 38.5129Z" fill="#FFA900"/>
<path opacity="0.4" d="M66.8688 47.6796V60.5129H74.2022V47.6796C74.2022 45.6629 73.4688 44.0129 71.2688 44.0129H69.8022C67.6022 44.0129 66.8688 45.6629 66.8688 47.6796Z" fill="#FFA900"/>
</svg>
