<svg width="343" height="222" viewBox="0 0 343 222" fill="none" xmlns="http://www.w3.org/2000/svg">
<path d="M0.296159 219.79C-0.0961605 220.178 -0.0990783 220.812 0.289642 221.204C0.678363 221.596 1.31152 221.599 1.70384 221.21L0.296159 219.79ZM342.5 1.5C342.5 0.947715 342.052 0.5 341.5 0.5H332.5C331.948 0.5 331.5 0.947715 331.5 1.5C331.5 2.05228 331.948 2.5 332.5 2.5H340.5V10.5C340.5 11.0523 340.948 11.5 341.5 11.5C342.052 11.5 342.5 11.0523 342.5 10.5V1.5ZM118.409 137.141L117.625 136.521L118.409 137.141ZM122.882 136.882L122.175 137.589L122.882 136.882ZM87.8521 175.739L87.0681 175.119L87.8521 175.739ZM76.7146 153.464L77.643 153.835L76.7146 153.464ZM61.2854 192.036L62.2139 192.408L61.2854 192.036ZM50.3885 171.565L49.6846 170.854L50.3885 171.565ZM1.70384 221.21L3.46771 219.463L2.06003 218.042L0.296159 219.79L1.70384 221.21ZM6.99546 215.967L10.5232 212.472L9.11553 211.051L5.58778 214.547L6.99546 215.967ZM14.051 208.977L17.5787 205.481L16.171 204.06L12.6433 207.556L14.051 208.977ZM21.1065 201.986L24.6342 198.49L23.2265 197.07L19.6988 200.565L21.1065 201.986ZM28.1619 194.995L31.6897 191.5L30.282 190.079L26.7543 193.574L28.1619 194.995ZM35.2174 188.004L38.7452 184.509L37.3375 183.088L33.8098 186.583L35.2174 188.004ZM42.2729 181.013L45.8007 177.518L44.393 176.097L40.8653 179.593L42.2729 181.013ZM49.3284 174.023L51.0923 172.275L49.6846 170.854L47.9208 172.602L49.3284 174.023ZM51.0923 172.275C51.4061 171.964 51.7591 171.792 52.1121 171.724L51.7338 169.761C50.9949 169.903 50.2826 170.262 49.6846 170.854L51.0923 172.275ZM54.1733 172.584C54.3735 172.882 54.5 173.254 54.5 173.696H56.5C56.5 172.854 56.2536 172.095 55.8347 171.47L54.1733 172.584ZM54.5 173.696V175.849H56.5V173.696H54.5ZM54.5 180.156V184.462H56.5V180.156H54.5ZM54.5 188.769V190.922H56.5V188.769H54.5ZM54.5 190.922C54.5 191.939 54.8378 192.815 55.3998 193.488L56.9353 192.206C56.678 191.898 56.5 191.477 56.5 190.922H54.5ZM60.4256 194.456C61.1974 194.039 61.8365 193.351 62.2139 192.408L60.357 191.665C60.1508 192.18 59.8292 192.505 59.4759 192.696L60.4256 194.456ZM62.2139 192.408L63.1782 189.997L61.3213 189.254L60.357 191.665L62.2139 192.408ZM65.1069 185.175L67.0355 180.354L65.1786 179.611L63.2499 184.433L65.1069 185.175ZM68.9642 175.532L70.8928 170.711L69.0358 169.968L67.1072 174.789L68.9642 175.532ZM72.8214 165.889L74.7501 161.067L72.8931 160.325L70.9645 165.146L72.8214 165.889ZM76.6787 156.246L77.643 153.835L75.7861 153.092L74.8218 155.503L76.6787 156.246ZM77.643 153.835C77.8492 153.32 78.1708 152.995 78.5241 152.804L77.5744 151.044C76.8026 151.461 76.1635 152.149 75.7861 153.092L77.643 153.835ZM81.0647 153.294C81.322 153.602 81.5 154.023 81.5 154.578H83.5C83.5 153.561 83.1622 152.685 82.6002 152.012L81.0647 153.294ZM81.5 154.578V156.99H83.5V154.578H81.5ZM81.5 161.815V166.64H83.5V161.815H81.5ZM81.5 171.465V173.877H83.5V171.465H81.5ZM81.5 173.877C81.5 174.769 81.7722 175.563 82.2315 176.204L83.8578 175.04C83.6407 174.737 83.5 174.35 83.5 173.877H81.5ZM86.6183 177.731C87.3766 177.513 88.0827 177.059 88.6362 176.36L87.0681 175.119C86.7747 175.489 86.4243 175.705 86.0657 175.808L86.6183 177.731ZM88.6362 176.36L90.164 174.43L88.5959 173.189L87.0681 175.119L88.6362 176.36ZM93.2197 170.57L96.2754 166.711L94.7073 165.469L91.6516 169.329L93.2197 170.57ZM99.331 162.851L102.387 158.991L100.819 157.75L97.7629 161.609L99.331 162.851ZM105.442 155.131L108.498 151.271L106.93 150.03L103.874 153.89L105.442 155.131ZM111.554 147.412L114.609 143.552L113.041 142.31L109.986 146.17L111.554 147.412ZM117.665 139.692L119.193 137.762L117.625 136.521L116.097 138.451L117.665 139.692ZM119.193 137.762C119.376 137.53 119.597 137.353 119.837 137.228L118.916 135.453C118.429 135.706 117.987 136.064 117.625 136.521L119.193 137.762ZM121.473 137.134C121.727 137.23 121.966 137.38 122.175 137.589L123.589 136.175C123.177 135.763 122.697 135.459 122.184 135.264L121.473 137.134ZM122.175 137.589L123.821 139.235L125.235 137.821L123.589 136.175L122.175 137.589ZM127.112 142.526L130.404 145.818L131.818 144.404L128.526 141.112L127.112 142.526ZM133.695 149.109L136.986 152.401L138.401 150.986L135.109 147.695L133.695 149.109ZM140.278 155.692L143.569 158.983L144.983 157.569L141.692 154.278L140.278 155.692ZM146.86 162.275L150.152 165.566L151.566 164.152L148.275 160.86L146.86 162.275ZM153.443 168.857L156.735 172.149L158.149 170.735L154.857 167.443L153.443 168.857ZM160.026 175.44L161.672 177.086L163.086 175.672L161.44 174.026L160.026 175.44ZM161.672 177.086C163.234 178.648 165.766 178.648 167.328 177.086L165.914 175.672C165.133 176.453 163.867 176.453 163.086 175.672L161.672 177.086ZM167.328 177.086L169.077 175.337L167.663 173.923L165.914 175.672L167.328 177.086ZM172.575 171.839L176.072 168.342L174.658 166.928L171.161 170.425L172.575 171.839ZM179.57 164.844L183.068 161.347L181.653 159.932L178.156 163.43L179.57 164.844ZM186.565 157.849L190.063 154.352L188.648 152.937L185.151 156.435L186.565 157.849ZM193.56 150.854L197.058 147.356L195.644 145.942L192.146 149.44L193.56 150.854ZM200.555 143.859L204.053 140.361L202.639 138.947L199.141 142.445L200.555 143.859ZM207.551 136.864L211.048 133.366L209.634 131.952L206.136 135.449L207.551 136.864ZM214.546 129.869L218.043 126.371L216.629 124.957L213.131 128.454L214.546 129.869ZM221.541 122.873L225.038 119.376L223.624 117.962L220.127 121.459L221.541 122.873ZM228.536 115.878L232.034 112.381L230.619 110.966L227.122 114.464L228.536 115.878ZM235.531 108.883L239.029 105.386L237.614 103.971L234.117 107.469L235.531 108.883ZM242.526 101.888L246.024 98.3904L244.61 96.9761L241.112 100.474L242.526 101.888ZM249.521 94.8928L253.019 91.3952L251.605 89.981L248.107 93.4786L249.521 94.8928ZM256.517 87.8976L260.014 84.4L258.6 82.9858L255.102 86.4834L256.517 87.8976ZM263.512 80.9025L267.009 77.4049L265.595 75.9907L262.098 79.4883L263.512 80.9025ZM270.507 73.9073L274.004 70.4097L272.59 68.9955L269.093 72.4931L270.507 73.9073ZM277.502 66.9122L281 63.4146L279.585 62.0004L276.088 65.498L277.502 66.9122ZM284.497 59.917L287.995 56.4194L286.581 55.0052L283.083 58.5028L284.497 59.917ZM291.492 52.9219L294.99 49.4243L293.576 48.0101L290.078 51.5077L291.492 52.9219ZM298.487 45.9267L301.985 42.4291L300.571 41.0149L297.073 44.5125L298.487 45.9267ZM305.483 38.9316L308.98 35.434L307.566 34.0198L304.068 37.5173L305.483 38.9316ZM312.478 31.9364L315.975 28.4388L314.561 27.0246L311.064 30.5222L312.478 31.9364ZM319.473 24.9413L322.971 21.4437L321.556 20.0295L318.059 23.527L319.473 24.9413ZM326.468 17.9461L329.966 14.4485L328.551 13.0343L325.054 16.5319L326.468 17.9461ZM333.463 10.9509L336.961 7.45338L335.547 6.03917L332.049 9.53674L333.463 10.9509ZM340.458 3.9558L342.207 2.20711L340.793 0.792893L339.044 2.54158L340.458 3.9558Z" fill="#140532"/>
</svg>
