<svg width="54" height="54" viewBox="0 0 54 54" fill="none" xmlns="http://www.w3.org/2000/svg">
<path d="M38.1733 0.333984H15.8267C6.12 0.333984 0.333332 6.12065 0.333332 15.8273V38.1473C0.333332 47.8806 6.12 53.6673 15.8267 53.6673H38.1467C47.8533 53.6673 53.64 47.8806 53.64 38.174V15.8273C53.6667 6.12065 47.88 0.333984 38.1733 0.333984Z" fill="#E4387E"/>
<path opacity="0.4" d="M34.3732 21.3594C34.2798 21.346 34.1865 21.346 34.0932 21.3594C32.0265 21.2927 30.3865 19.5993 30.3865 17.5193C30.3865 15.3993 32.1065 13.666 34.2398 13.666C36.3598 13.666 38.0932 15.386 38.0932 17.5193C38.0798 19.5993 36.4398 21.2927 34.3732 21.3594Z" fill="white"/>
<path opacity="0.4" d="M38.7198 30.6005C37.2265 31.6005 35.1332 31.9739 33.1998 31.7205C33.7065 30.6272 33.9732 29.4139 33.9865 28.1339C33.9865 26.8005 33.6932 25.5339 33.1332 24.4272C35.1065 24.1605 37.1998 24.5339 38.7065 25.5339C40.8132 26.9205 40.8132 29.2005 38.7198 30.6005Z" fill="white"/>
<path opacity="0.4" d="M19.5865 21.3594C19.6798 21.346 19.7732 21.346 19.8665 21.3594C21.9332 21.2927 23.5732 19.5993 23.5732 17.5193C23.5732 15.3993 21.8532 13.666 19.7198 13.666C17.5998 13.666 15.8665 15.386 15.8665 17.5193C15.8798 19.5993 17.5198 21.2927 19.5865 21.3594Z" fill="white"/>
<path opacity="0.4" d="M19.7332 28.1341C19.7332 29.4275 20.0132 30.6541 20.5198 31.7608C18.6398 31.9608 16.6798 31.5608 15.2398 30.6141C13.1332 29.2141 13.1332 26.9341 15.2398 25.5341C16.6665 24.5741 18.6798 24.1875 20.5732 24.4008C20.0265 25.5208 19.7332 26.7875 19.7332 28.1341Z" fill="white"/>
<path d="M27.1598 32.16C27.0532 32.1467 26.9332 32.1467 26.8132 32.16C24.3598 32.08 22.3998 30.0667 22.3998 27.5867C22.3998 25.0533 24.4398 23 26.9865 23C29.5198 23 31.5732 25.0533 31.5732 27.5867C31.5732 30.0667 29.6265 32.08 27.1598 32.16Z" fill="white"/>
<path d="M22.8265 34.9195C20.8132 36.2662 20.8132 38.4795 22.8265 39.8129C25.1198 41.3462 28.8798 41.3462 31.1732 39.8129C33.1865 38.4662 33.1865 36.2529 31.1732 34.9195C28.8932 33.3862 25.1332 33.3862 22.8265 34.9195Z" fill="white"/>
</svg>
