<svg width="136" height="18" viewBox="0 0 136 18" fill="none" xmlns="http://www.w3.org/2000/svg">
<path d="M6.80488 17.192C5.63688 17.192 4.61288 16.92 3.73288 16.376C2.86888 15.816 2.19688 15.064 1.71688 14.12C1.23688 13.176 0.996878 12.136 0.996878 11C0.996878 9.848 1.23688 8.808 1.71688 7.88C2.19688 6.936 2.86888 6.192 3.73288 5.648C4.61288 5.088 5.63688 4.808 6.80488 4.808C7.79688 4.808 8.64488 5 9.34888 5.384C10.0689 5.768 10.6529 6.288 11.1009 6.944V0.199999H12.9009V17H11.1009V15.08C10.6529 15.72 10.0689 16.232 9.34888 16.616C8.64488 17 7.79688 17.192 6.80488 17.192ZM7.04488 15.56C7.94088 15.56 8.69288 15.352 9.30088 14.936C9.92488 14.52 10.3969 13.968 10.7169 13.28C11.0369 12.576 11.1969 11.816 11.1969 11C11.1969 10.168 11.0369 9.408 10.7169 8.72C10.3969 8.032 9.92488 7.48 9.30088 7.064C8.69288 6.648 7.94088 6.44 7.04488 6.44C6.16488 6.44 5.40488 6.648 4.76488 7.064C4.12488 7.48 3.63688 8.032 3.30088 8.72C2.96488 9.408 2.79688 10.168 2.79688 11C2.79688 11.816 2.96488 12.576 3.30088 13.28C3.63688 13.968 4.12488 14.52 4.76488 14.936C5.40488 15.352 6.16488 15.56 7.04488 15.56ZM21.0783 17.192C19.9103 17.192 18.8863 16.92 18.0063 16.376C17.1423 15.816 16.4703 15.064 15.9903 14.12C15.5103 13.176 15.2703 12.136 15.2703 11C15.2703 9.848 15.5103 8.808 15.9903 7.88C16.4703 6.936 17.1423 6.192 18.0063 5.648C18.8863 5.088 19.9103 4.808 21.0783 4.808C22.0703 4.808 22.9183 5 23.6223 5.384C24.3423 5.768 24.9263 6.288 25.3743 6.944V5H27.1743V17H25.3743V15.08C24.9263 15.72 24.3423 16.232 23.6223 16.616C22.9183 17 22.0703 17.192 21.0783 17.192ZM21.3183 15.56C22.2143 15.56 22.9663 15.352 23.5743 14.936C24.1983 14.52 24.6703 13.968 24.9903 13.28C25.3103 12.576 25.4703 11.816 25.4703 11C25.4703 10.168 25.3103 9.408 24.9903 8.72C24.6703 8.032 24.1983 7.48 23.5743 7.064C22.9663 6.648 22.2143 6.44 21.3183 6.44C20.4383 6.44 19.6783 6.648 19.0383 7.064C18.3983 7.48 17.9103 8.032 17.5743 8.72C17.2383 9.408 17.0703 10.168 17.0703 11C17.0703 11.816 17.2383 12.576 17.5743 13.28C17.9103 13.968 18.3983 14.52 19.0383 14.936C19.6783 15.352 20.4383 15.56 21.3183 15.56ZM30.2878 17V5H32.0878V6.872C32.5198 6.296 33.0478 5.808 33.6718 5.408C34.2958 5.008 35.0958 4.808 36.0718 4.808C36.9038 4.808 37.6798 5.008 38.3998 5.408C39.1358 5.792 39.7278 6.376 40.1758 7.16C40.6398 7.928 40.8718 8.88 40.8718 10.016V17H39.0718V10.064C39.0718 8.976 38.7598 8.104 38.1358 7.448C37.5118 6.776 36.7038 6.44 35.7118 6.44C35.0398 6.44 34.4318 6.592 33.8878 6.896C33.3438 7.2 32.9038 7.632 32.5678 8.192C32.2478 8.736 32.0878 9.368 32.0878 10.088V17H30.2878ZM48.9455 17.192C47.7775 17.192 46.7535 16.92 45.8735 16.376C45.0095 15.816 44.3375 15.064 43.8575 14.12C43.3775 13.176 43.1375 12.136 43.1375 11C43.1375 9.848 43.3775 8.808 43.8575 7.88C44.3375 6.936 45.0095 6.192 45.8735 5.648C46.7535 5.088 47.7775 4.808 48.9455 4.808C49.9375 4.808 50.7855 5 51.4895 5.384C52.2095 5.768 52.7935 6.288 53.2415 6.944V5H55.0415V17H53.2415V15.08C52.7935 15.72 52.2095 16.232 51.4895 16.616C50.7855 17 49.9375 17.192 48.9455 17.192ZM49.1855 15.56C50.0815 15.56 50.8335 15.352 51.4415 14.936C52.0655 14.52 52.5375 13.968 52.8575 13.28C53.1775 12.576 53.3375 11.816 53.3375 11C53.3375 10.168 53.1775 9.408 52.8575 8.72C52.5375 8.032 52.0655 7.48 51.4415 7.064C50.8335 6.648 50.0815 6.44 49.1855 6.44C48.3055 6.44 47.5455 6.648 46.9055 7.064C46.2655 7.48 45.7775 8.032 45.4415 8.72C45.1055 9.408 44.9375 10.168 44.9375 11C44.9375 11.816 45.1055 12.576 45.4415 13.28C45.7775 13.968 46.2655 14.52 46.9055 14.936C47.5455 15.352 48.3055 15.56 49.1855 15.56ZM58.1549 17V5H59.9549V6.824C60.2269 6.344 60.6589 5.888 61.2509 5.456C61.8429 5.024 62.6269 4.808 63.6029 4.808C64.4029 4.808 65.1389 5.024 65.8109 5.456C66.4989 5.872 67.0349 6.464 67.4189 7.232C67.5789 6.96 67.8269 6.632 68.1629 6.248C68.5149 5.864 68.9709 5.528 69.5309 5.24C70.0909 4.952 70.7629 4.808 71.5469 4.808C72.3149 4.808 73.0349 5.008 73.7069 5.408C74.3789 5.808 74.9229 6.384 75.3389 7.136C75.7709 7.872 75.9869 8.744 75.9869 9.752V17H74.1869V9.8C74.1869 8.792 73.8989 7.984 73.3229 7.376C72.7629 6.752 72.0589 6.44 71.2109 6.44C70.3309 6.44 69.5709 6.736 68.9309 7.328C68.2909 7.92 67.9709 8.752 67.9709 9.824V17H66.1709V9.8C66.1709 8.792 65.8829 7.984 65.3069 7.376C64.7469 6.752 64.0429 6.44 63.1949 6.44C62.3149 6.44 61.5549 6.736 60.9149 7.328C60.2749 7.92 59.9549 8.752 59.9549 9.824V17H58.1549ZM84.3189 17.192C83.1029 17.192 82.0389 16.92 81.1269 16.376C80.2149 15.816 79.5029 15.064 78.9909 14.12C78.4949 13.176 78.2469 12.136 78.2469 11C78.2469 9.848 78.4869 8.808 78.9669 7.88C79.4469 6.936 80.1349 6.192 81.0309 5.648C81.9269 5.088 82.9829 4.808 84.1989 4.808C85.4309 4.808 86.4869 5.088 87.3669 5.648C88.2629 6.192 88.9509 6.936 89.4309 7.88C89.9109 8.808 90.1509 9.848 90.1509 11V11.72H80.0949C80.1909 12.424 80.4149 13.072 80.7669 13.664C81.1349 14.24 81.6229 14.704 82.2309 15.056C82.8389 15.392 83.5429 15.56 84.3429 15.56C85.1909 15.56 85.9029 15.376 86.4789 15.008C87.0549 14.624 87.5029 14.136 87.8229 13.544H89.7909C89.3749 14.616 88.7109 15.496 87.7989 16.184C86.9029 16.856 85.7429 17.192 84.3189 17.192ZM80.1189 10.04H88.2789C88.1189 9.016 87.6869 8.16 86.9829 7.472C86.2789 6.784 85.3509 6.44 84.1989 6.44C83.0469 6.44 82.1189 6.784 81.4149 7.472C80.7269 8.16 80.2949 9.016 80.1189 10.04ZM93.6463 17V6.584H91.1983V5H93.6463V0.704H95.4463V5H98.2063V6.584H95.4463V17H93.6463ZM100.178 17V5H101.978V7.952C102.042 7.744 102.162 7.472 102.338 7.136C102.53 6.784 102.802 6.432 103.154 6.08C103.506 5.728 103.946 5.432 104.474 5.192C105.018 4.936 105.658 4.808 106.394 4.808H106.514V6.608H106.298C105.402 6.608 104.626 6.856 103.97 7.352C103.33 7.832 102.834 8.464 102.482 9.248C102.146 10.016 101.978 10.84 101.978 11.72V17H100.178ZM108.38 2.984V0.631999H110.324V2.984H108.38ZM108.452 17V5H110.252V17H108.452ZM118.534 17.192C117.334 17.192 116.294 16.92 115.414 16.376C114.534 15.816 113.846 15.064 113.35 14.12C112.87 13.176 112.63 12.136 112.63 11C112.63 9.848 112.87 8.808 113.35 7.88C113.846 6.936 114.534 6.192 115.414 5.648C116.294 5.088 117.334 4.808 118.534 4.808C119.958 4.808 121.166 5.176 122.158 5.912C123.166 6.648 123.846 7.6 124.198 8.768H122.254C121.982 8.08 121.542 7.52 120.934 7.088C120.342 6.656 119.622 6.44 118.774 6.44C117.894 6.44 117.126 6.648 116.47 7.064C115.814 7.48 115.31 8.032 114.958 8.72C114.606 9.408 114.43 10.168 114.43 11C114.43 11.816 114.606 12.576 114.958 13.28C115.31 13.968 115.814 14.52 116.47 14.936C117.126 15.352 117.894 15.56 118.774 15.56C119.622 15.56 120.342 15.344 120.934 14.912C121.542 14.48 121.982 13.92 122.254 13.232H124.198C123.846 14.4 123.166 15.352 122.158 16.088C121.166 16.824 119.958 17.192 118.534 17.192ZM130.796 17.192C129.692 17.192 128.756 17.008 127.988 16.64C127.236 16.272 126.66 15.792 126.26 15.2C125.86 14.592 125.636 13.936 125.588 13.232H127.46C127.508 13.632 127.644 14.024 127.868 14.408C128.108 14.776 128.468 15.08 128.948 15.32C129.428 15.544 130.052 15.656 130.82 15.656C131.06 15.656 131.356 15.632 131.708 15.584C132.06 15.536 132.396 15.448 132.716 15.32C133.052 15.192 133.332 15 133.556 14.744C133.78 14.488 133.892 14.16 133.892 13.76C133.892 13.264 133.7 12.88 133.316 12.608C132.932 12.336 132.436 12.128 131.828 11.984C131.22 11.824 130.572 11.672 129.884 11.528C129.212 11.384 128.572 11.2 127.964 10.976C127.356 10.736 126.86 10.408 126.476 9.992C126.092 9.56 125.9 8.976 125.9 8.24C125.9 7.152 126.292 6.312 127.076 5.72C127.876 5.112 129.052 4.808 130.604 4.808C131.66 4.808 132.516 4.976 133.172 5.312C133.844 5.632 134.348 6.048 134.684 6.56C135.036 7.072 135.244 7.624 135.308 8.216H133.484C133.42 7.704 133.164 7.264 132.716 6.896C132.284 6.528 131.564 6.344 130.556 6.344C128.652 6.344 127.7 6.92 127.7 8.072C127.7 8.552 127.892 8.92 128.276 9.176C128.66 9.432 129.156 9.64 129.764 9.8C130.372 9.944 131.012 10.088 131.684 10.232C132.372 10.36 133.02 10.544 133.628 10.784C134.236 11.024 134.732 11.368 135.116 11.816C135.5 12.248 135.692 12.84 135.692 13.592C135.692 14.76 135.244 15.656 134.348 16.28C133.468 16.888 132.284 17.192 130.796 17.192Z" fill="black"/>
</svg>
