<svg width="47" height="25" viewBox="0 0 47 25" fill="none" xmlns="http://www.w3.org/2000/svg">
<path d="M19.6046 9.33613C19.6046 11.6491 19.6726 13.9847 19.5819 16.2977C19.5365 17.7489 18.9696 19.0868 18.1987 20.3113C15.9764 23.7581 12.8018 25.3454 8.76543 24.9372C5.72684 24.6424 3.3005 23.1232 1.57713 20.5154C0.375298 18.6787 -0.146248 16.6832 0.0351603 14.5743C0.284597 11.5584 1.57713 8.99599 4.11684 7.22726C6.70191 5.41318 9.55909 4.98234 12.6204 5.82135C13.1419 5.95741 13.6408 6.18417 14.1623 6.38825C14.7065 6.61501 14.9106 6.50163 14.9333 5.88938C14.956 4.71022 14.9333 3.55375 14.9333 2.37459C14.956 1.05938 15.6363 0.265725 16.9061 0.0389648C18.312 -0.210471 19.6046 0.764598 19.6272 2.19319C19.6499 4.55149 19.6272 6.95515 19.6046 9.33613ZM9.87655 20.1753C12.7791 20.2206 14.9333 17.7036 14.8426 15.0278C14.7746 12.3067 12.4163 10.0618 9.62712 10.1751C7.13275 10.2659 4.70642 12.4427 4.79713 15.3453C4.88783 18.0211 7.26881 20.334 9.87655 20.1753Z" fill="#E4387E"/>
<path d="M26.3167 12.7145C26.3167 14.9368 26.3167 17.159 26.3167 19.3813C26.3167 20.4697 25.7044 21.3314 24.7293 21.6942C23.845 22.0117 22.6885 21.7396 22.0989 20.9233C21.8041 20.5151 21.5774 19.9709 21.5774 19.4947C21.532 15.0048 21.5774 10.515 21.532 6.02511C21.5093 4.55117 22.6431 3.05455 24.616 3.46272C25.6137 3.6668 26.362 4.66455 26.362 5.93441C26.3847 8.20201 26.362 10.4696 26.362 12.7145C26.3393 12.7145 26.3167 12.7145 26.3167 12.7145Z" fill="#FFA900"/>
<path d="M33.0289 14.2113C33.0289 15.98 33.0289 17.7487 33.0289 19.5401C33.0289 20.7873 31.9631 21.8077 30.6932 21.8304C29.3554 21.8304 28.2669 20.8553 28.2442 19.6082C28.2216 16.0934 28.2216 12.6013 28.1989 9.08649C28.1989 8.17945 28.5164 7.40846 29.2647 6.88691C30.0356 6.34269 32.0538 6.36536 32.6434 7.61255C32.9382 8.2248 33.0289 8.81437 33.0289 9.47198C33.0062 11.0593 33.0289 12.6239 33.0289 14.2113Z" fill="#FFA900"/>
<path d="M39.6728 16.0709C39.6728 17.2273 39.6274 18.3611 39.6728 19.5176C39.7181 20.7648 38.4256 21.8306 37.3372 21.8079C35.9313 21.7852 34.9108 20.8101 34.9108 19.4496C34.9108 17.114 34.9108 14.7783 34.9108 12.4427C34.9108 11.5357 35.2736 10.81 36.09 10.4245C37.2691 9.90298 38.3122 10.1297 39.0605 10.9007C39.5367 11.3996 39.6501 11.9665 39.6501 12.6014C39.6955 13.7806 39.6728 14.9371 39.6728 16.0709Z" fill="#FFA900"/>
<path d="M41.8497 17.7486C41.7363 16.5014 42.9381 15.5717 43.9812 15.5717C45.1604 15.549 46.1808 16.4561 46.1808 17.7713C46.1808 19.0185 45.2057 19.9482 43.9812 19.9482C42.9154 19.9255 41.7136 18.9504 41.8497 17.7486Z" fill="black"/>
</svg>
